<?xml version="1.0" encoding="utf-8"?>
<!-- Generator: Adobe Illustrator 22.0.1, SVG Export Plug-In . SVG Version: 6.00 Build 0)  -->
<svg version="1.1" xmlns="http://www.w3.org/2000/svg" xmlns:xlink="http://www.w3.org/1999/xlink" x="0px" y="0px" viewBox="0 0 64 64" style="enable-background:new 0 0 64 64;" xml:space="preserve">
	<g id="Layer_2">
		<circle class="st3" cx="32" cy="16" r="6.9"/>
		<rect x="28.6" y="2.9" transform="matrix(6.123234e-17 -1 1 6.123234e-17 28.5714 35.4286)" class="st3" width="6.9" height="1.1"/>
		<rect x="28.6" y="28" transform="matrix(6.123234e-17 -1 1 6.123234e-17 3.4286 60.5714)" class="st3" width="6.9" height="1.1"/>
		<rect x="41.1" y="15.4" class="st3" width="6.9" height="1.1"/>
		<rect x="16" y="15.4" class="st3" width="6.9" height="1.1"/>
		<rect x="37.5" y="6.5" transform="matrix(0.7071 -0.7071 0.7071 0.7071 6.9482 30.9958)" class="st3" width="6.9" height="1.1"/>
		<rect x="19.7" y="24.3" transform="matrix(0.7071 -0.7071 0.7071 0.7071 -10.8305 23.6316)" class="st3" width="6.9" height="1.1"/>
		<rect x="37.5" y="24.3" transform="matrix(0.7071 0.7071 -0.7071 0.7071 29.5756 -21.6232)" class="st3" width="6.9" height="1.1"/>
		<rect x="19.7" y="6.5" transform="matrix(0.7071 0.7071 -0.7071 0.7071 11.7969 -14.259)" class="st3" width="6.9" height="1.1"/>
	</g>
	<g id="Layer_3">
		<path class="st3" d="M36.2,57.5c-7.6,0-13.7-6.1-13.7-13.7c0-5,2.7-9.4,6.8-11.8C21.7,33.4,16,39.9,16,47.9C16,56.8,23.2,64,32.1,64c7.9,0,14.5-5.7,15.9-13.3C45.6,54.8,41.2,57.5,36.2,57.5z"/>
	</g>
</svg>
