<svg id="Layer_1" data-name="Layer 1" xmlns="http://www.w3.org/2000/svg" viewBox="0 0 128 16"><defs><style>.cls-1{fill:#dc1e3d;}</style></defs><title>name</title><path class="cls-1" d="M83.45,6.49H81.21c-.89,0-1.33.46-1.33,1.39v3.33c0,.93.44,1.39,1.33,1.39h.91a1.5,1.5,0,0,0,1.1-.38,1.47,1.47,0,0,0,.39-1.09V6.63C83.61,6.54,83.55,6.49,83.45,6.49Z"/><path class="cls-1" d="M58.17,6.49H57.08a1.2,1.2,0,0,0-1.34,1.37V9.1a.14.14,0,0,0,.16.16h3.45a.14.14,0,0,0,.16-.16V7.86A1.2,1.2,0,0,0,58.17,6.49Z"/><path class="cls-1" d="M34.82,6.49H32.58c-.88,0-1.32.46-1.32,1.39v3.33c0,.93.44,1.39,1.32,1.39h.92a1.51,1.51,0,0,0,1.1-.38A1.46,1.46,0,0,0,35,11.13V6.63C35,6.54,34.93,6.49,34.82,6.49Z"/><path class="cls-1" d="M107.3,6.49h-1.08a1.2,1.2,0,0,0-1.35,1.37V9.1a.14.14,0,0,0,.16.16h3.46a.15.15,0,0,0,.16-.16V7.86A1.2,1.2,0,0,0,107.3,6.49Z"/><path class="cls-1" d="M115.06,6.49h-1c-.89,0-1.33.46-1.33,1.39v3.33c0,.93.44,1.39,1.33,1.39h1a1.54,1.54,0,0,0,1.11-.38,1.5,1.5,0,0,0,.38-1.09V8a1.5,1.5,0,0,0-.38-1.09A1.54,1.54,0,0,0,115.06,6.49Z"/><path class="cls-1" d="M0,0V16H128V0ZM15.77,4.14a.2.2,0,0,1-.22.22H11.62c-.1,0-.15,0-.15.14V7.74c0,.09,0,.14.15.14h3.43a.19.19,0,0,1,.22.22v.58a.19.19,0,0,1-.22.22H11.62a.13.13,0,0,0-.15.15v3.41c0,.09,0,.14.15.14h3.93a.2.2,0,0,1,.22.22v.58a.2.2,0,0,1-.22.22h-5a.19.19,0,0,1-.22-.22V3.56a.19.19,0,0,1,.22-.22h5a.2.2,0,0,1,.22.22ZM28.12,13.4a.19.19,0,0,1-.22.22h-.72c-.15,0-.23-.07-.23-.22V7.88c0-.93-.44-1.39-1.34-1.39h-.53A1.43,1.43,0,0,0,24,6.9,1.53,1.53,0,0,0,23.58,8V13.4c0,.15-.08.22-.23.22h-.72a.19.19,0,0,1-.22-.22V7.88c0-.93-.45-1.39-1.34-1.39h-.6a1.51,1.51,0,0,0-1.1.38A1.46,1.46,0,0,0,19,8V13.4c0,.15-.08.22-.23.22H18a.19.19,0,0,1-.22-.22V5.69c0-.15.07-.23.22-.23h.72a.21.21,0,0,1,.23.23v.62h.06a1.75,1.75,0,0,1,1.7-.85h.59a2,2,0,0,1,1.95,1.09,1.77,1.77,0,0,1,.81-.81,2.61,2.61,0,0,1,1.16-.28h.56a2.23,2.23,0,0,1,1.69.63,2.35,2.35,0,0,1,.61,1.74Zm8,0a.19.19,0,0,1-.22.22h-.72c-.15,0-.23-.07-.23-.22v-.62h-.06a1.62,1.62,0,0,1-1.63.84h-.83A2.35,2.35,0,0,1,30.72,13a2.35,2.35,0,0,1-.63-1.74V7.83a2.32,2.32,0,0,1,.63-1.74,2.35,2.35,0,0,1,1.74-.63h3.47c.15,0,.22.08.22.23Zm8.27,0a.19.19,0,0,1-.22.22h-.72a.19.19,0,0,1-.22-.22V7.88a1.21,1.21,0,0,0-1.35-1.39H41a1.54,1.54,0,0,0-1.11.38A1.5,1.5,0,0,0,39.53,8V13.4c0,.15-.08.22-.23.22h-.72a.2.2,0,0,1-.22-.22V5.69a.2.2,0,0,1,.22-.23h.72a.21.21,0,0,1,.23.23v.62h.06a1.63,1.63,0,0,1,1.63-.85h.9a2.26,2.26,0,0,1,1.7.63,2.39,2.39,0,0,1,.6,1.74Zm8.12,0c0,.15-.08.22-.23.22h-.72a.19.19,0,0,1-.22-.22v-.62H51.3a1.62,1.62,0,0,1-1.63.84h-.89a2.25,2.25,0,0,1-1.7-.62,2.42,2.42,0,0,1-.61-1.74V5.69a.21.21,0,0,1,.23-.23h.72c.15,0,.22.08.22.23v5.52c0,.93.44,1.39,1.33,1.39h.91a1.5,1.5,0,0,0,1.1-.38,1.47,1.47,0,0,0,.39-1.09V5.69c0-.15.07-.23.22-.23h.72a.21.21,0,0,1,.23.23Zm8.11-3.54a.21.21,0,0,1-.23.24H55.9c-.11,0-.16.05-.16.15v1c0,.93.44,1.4,1.34,1.4h3.26c.15,0,.23.07.23.22v.58c0,.13-.08.2-.23.2H57a2.18,2.18,0,0,1-2.37-2.36V7.83a2.29,2.29,0,0,1,.64-1.74A2.34,2.34,0,0,1,57,5.46H58.3a2.18,2.18,0,0,1,2.35,2.37Zm3.21,3.54a.19.19,0,0,1-.22.22h-.72a.19.19,0,0,1-.22-.22V2.6a.19.19,0,0,1,.22-.22h.72a.19.19,0,0,1,.22.22Zm13-6.91a.19.19,0,0,1-.22.22h-.72c-.15,0-.23-.07-.23-.22V5.75c0-.93-.44-1.39-1.34-1.39H72.71c-.88,0-1.33.46-1.33,1.39v5.46c0,.93.45,1.39,1.33,1.39h1.65c.9,0,1.34-.46,1.34-1.39v-.74c0-.15.08-.22.23-.22h.72a.19.19,0,0,1,.22.22v.79A2.35,2.35,0,0,1,76.24,13a2.35,2.35,0,0,1-1.74.62H72.58a2.17,2.17,0,0,1-2.36-2.36V5.7A2.35,2.35,0,0,1,70.85,4a2.34,2.34,0,0,1,1.73-.62H74.5A2.35,2.35,0,0,1,76.24,4a2.35,2.35,0,0,1,.63,1.74Zm7.91,6.91c0,.15-.08.22-.23.22h-.72a.19.19,0,0,1-.22-.22v-.62h-.07a1.62,1.62,0,0,1-1.63.84h-.83A2.35,2.35,0,0,1,79.34,13a2.35,2.35,0,0,1-.63-1.74V7.83a2.32,2.32,0,0,1,.63-1.74,2.35,2.35,0,0,1,1.74-.63h3.47a.21.21,0,0,1,.23.23Zm5.93-7.12a.23.23,0,0,1,0,.17s-.08,0-.16,0h-.86a1.37,1.37,0,0,0-1.1.43,1.7,1.7,0,0,0-.39,1.18v5.3a.19.19,0,0,1-.22.22h-.72c-.15,0-.23-.07-.23-.22V5.69a.21.21,0,0,1,.23-.23h.72c.15,0,.22.08.22.23v.64h.07a1.35,1.35,0,0,1,.6-.61,2.11,2.11,0,0,1,1.06-.26h.62c.14,0,.21.08.21.23ZM93.4,13.4a.2.2,0,0,1-.22.22h-.72c-.15,0-.23-.07-.23-.22V2.6c0-.15.08-.22.23-.22h.72a.2.2,0,0,1,.22.22Zm8.35,0a.19.19,0,0,1-.22.22h-.72c-.15,0-.23-.07-.23-.22V7.88c0-.93-.45-1.39-1.34-1.39h-.9a1.5,1.5,0,0,0-1.1.38A1.46,1.46,0,0,0,96.86,8V13.4c0,.15-.08.22-.23.22h-.72a.19.19,0,0,1-.22-.22V2.6a.19.19,0,0,1,.22-.22h.72c.15,0,.23.07.23.22V6.31h.06a1.63,1.63,0,0,1,1.63-.85h.9a2.23,2.23,0,0,1,1.69.63,2.35,2.35,0,0,1,.61,1.74Zm8-3.54c0,.16-.07.24-.22.24H105c-.11,0-.16.05-.16.15v1a1.22,1.22,0,0,0,1.35,1.4h3.26a.19.19,0,0,1,.22.22v.58c0,.13-.07.2-.22.2h-3.39a2.35,2.35,0,0,1-1.74-.62,2.35,2.35,0,0,1-.63-1.74V7.83a2.32,2.32,0,0,1,.63-1.74,2.35,2.35,0,0,1,1.74-.63h1.34a2.33,2.33,0,0,1,1.73.63,2.36,2.36,0,0,1,.62,1.74Zm7.92,3.54c0,.15-.07.22-.21.22h-.73c-.14,0-.21-.07-.21-.22v-.62h-.06a1.65,1.65,0,0,1-1.65.84h-.94a2.24,2.24,0,0,1-1.7-.62,2.38,2.38,0,0,1-.61-1.74V7.83a2.35,2.35,0,0,1,.61-1.74,2.24,2.24,0,0,1,1.7-.63h.94a1.65,1.65,0,0,1,1.65.85h.06V2.6c0-.15.07-.22.21-.22h.73c.14,0,.21.07.21.22Z"/></svg>