<?xml version="1.0" encoding="utf-8"?>
<!-- Generator: Adobe Illustrator 22.0.1, SVG Export Plug-In . SVG Version: 6.00 Build 0)  -->
<svg version="1.1" xmlns="http://www.w3.org/2000/svg" xmlns:xlink="http://www.w3.org/1999/xlink" x="0px" y="0px"
	 viewBox="0 0 64 64" style="enable-background:new 0 0 64 64;" xml:space="preserve">
<g id="Layer_1">
	<circle cx="32" cy="32" r="12"/>
	<rect x="26" y="9" transform="matrix(6.123234e-17 -1 1 6.123234e-17 22 42)" width="12" height="2"/>
	<rect x="26" y="53" transform="matrix(6.123234e-17 -1 1 6.123234e-17 -22 86)" width="12" height="2"/>
	<rect x="48" y="31" width="12" height="2"/>
	<rect x="4" y="31" width="12" height="2"/>
	<rect x="41.6" y="15.4" transform="matrix(0.7071 -0.7071 0.7071 0.7071 2.3015 38.4436)" width="12" height="2"/>
	<rect x="10.4" y="46.6" transform="matrix(0.7071 -0.7071 0.7071 0.7071 -28.8112 25.5563)" width="12" height="2"/>
	<rect x="41.6" y="46.6" transform="matrix(0.7071 0.7071 -0.7071 0.7071 47.5564 -19.6985)" width="12" height="2"/>
	<rect x="10.4" y="15.4" transform="matrix(0.7071 0.7071 -0.7071 0.7071 16.4437 -6.8112)" width="12" height="2"/>
</g>
<g id="Layer_2">
	<path d="M37,44c-9.4,0-17-7.6-17-17c0-6.3,3.4-11.7,8.4-14.7C19.1,14,12,22.2,12,32c0,11,9,20,20,20c9.8,0,18-7.1,19.7-16.4
		C48.7,40.6,43.3,44,37,44z"/>
</g>
</svg>
