<svg id="homeIcon" data-name="Layer 1" xmlns="http://www.w3.org/2000/svg" viewBox="0 0 64.01 54.27">
    <title>Home</title>
    <path
        d="M63.61,25l-1.1,1.52a2,2,0,0,1-2.87.45l-4-2.87L33.21,7.79a2.06,2.06,0,0,0-2.41,0L8.32,24.12,4.36,27a2,2,0,0,1-2.87-.45L.38,25a2,2,0,0,1,.46-2.86l7.48-5.44,13.49-9.8L29,1.66,30,1,30.8.39a2,2,0,0,1,2.4,0l.85.61.91.66,7.23,5.26,13.49,9.8,7.48,5.44A2.05,2.05,0,0,1,63.61,25Z"
        transform="translate(0.01 0)" />
    <path
        d="M30.8,13.72,9.17,29.43a2,2,0,0,0-.85,1.66V52.22a2.05,2.05,0,0,0,2,2.05H24a2.05,2.05,0,0,0,2-2.05V41.52a2.05,2.05,0,0,1,2.05-2.05h7.74a2.05,2.05,0,0,1,2.05,2.05v10.7a2.05,2.05,0,0,0,2,2.05H53.63a2.05,2.05,0,0,0,2-2.05V31.09a2,2,0,0,0-.85-1.66L33.21,13.72A2,2,0,0,0,30.8,13.72Z"
        transform="translate(0.01 0)" />
</svg>