<?xml version="1.0" encoding="utf-8"?>
<!-- Generator: Adobe Illustrator 22.0.1, SVG Export Plug-In . SVG Version: 6.00 Build 0)  -->
<svg version="1.1" xmlns="http://www.w3.org/2000/svg" xmlns:xlink="http://www.w3.org/1999/xlink" x="0px" y="0px"
	 viewBox="0 0 64 64" style="enable-background:new 0 0 64 64;" xml:space="preserve">
	<style type="text/css">
		.st0{fill:#FFFFFF;}
		.st1{display:none;}
		.st2{display:inline;}
	</style>
	<g id="Layer_1">
		<g>
			<path d="M32,2c5.5,0,10,4.5,10,10s-4.5,10-10,10s-10-4.5-10-10S26.5,2,32,2 M32,0c-6.6,0-12,5.4-12,12s5.4,12,12,12s12-5.4,12-12
				S38.6,0,32,0L32,0z"/>
		</g>
		<g>
			<path d="M40,26c7.7,0,14,6.3,14,14v22H10V40c0-7.7,6.3-14,14-14H40 M40,24H24c-8.8,0-16,7.2-16,16v24h48V40C56,31.2,48.8,24,40,24
				L40,24z"/>
		</g>
	</g>
	<g id="Layer_2">
		<g>
			<path d="M49.2,5l12,12L52,26.2l-2.6-2.6L46,20.2V25v34H18V25v-4.8l-3.4,3.4L12,26.2L2.8,17l12-12h10.3l5.4,5.4l1.4,1.4l1.4-1.4
				L38.8,5H49.2 M50,3H38l-6,6l-6-6H14L0,17l12,12l4-4v36h32V25l4,4l12-12L50,3L50,3z"/>
		</g>
	</g>
	<g id="Layer_3">
		<path d="M46,0H18c-1.1,0-2,0.9-2,2v60c0,1.1,0.9,2,2,2h28c1.1,0,2-0.9,2-2V2C48,0.9,47.1,0,46,0z M28.3,0.8h7.5
			C35.9,0.8,36,0.9,36,1s-0.1,0.3-0.3,0.3h-7.5C28.1,1.3,28,1.1,28,1S28.1,0.8,28.3,0.8z M47,60c0,0,0,0.1,0,0.2c0,0.1,0,0.1,0,0.2
			c-0.1,0.3-0.2,0.5-0.3,0.7c0,0,0,0,0,0c-0.1,0.2-0.3,0.4-0.5,0.5c0,0,0,0,0,0c-0.2,0.1-0.5,0.3-0.7,0.3c-0.1,0-0.1,0-0.2,0
			c0,0-0.1,0-0.2,0H19c-0.1,0-0.1,0-0.2,0c-0.1,0-0.1,0-0.2,0c-0.3,0-0.5-0.2-0.7-0.3c0,0,0,0,0,0c-0.2-0.1-0.4-0.3-0.5-0.5
			c0,0,0,0,0,0c-0.1-0.2-0.3-0.5-0.3-0.7c0-0.1,0-0.1,0-0.2c0-0.1,0-0.1,0-0.2V4c0,0,0-0.1,0-0.2c0-0.1,0-0.1,0-0.2
			c0.1-0.3,0.2-0.5,0.3-0.7c0,0,0,0,0,0c0.1-0.2,0.3-0.4,0.5-0.5c0,0,0,0,0,0c0.2-0.1,0.5-0.3,0.7-0.3c0.1,0,0.1,0,0.2,0
			c0,0,0.1,0,0.2,0H45c0.1,0,0.1,0,0.2,0c0.1,0,0.1,0,0.2,0c0.3,0,0.5,0.2,0.7,0.3c0,0,0,0,0,0c0.2,0.2,0.4,0.3,0.5,0.5c0,0,0,0,0,0
			c0.1,0.2,0.3,0.5,0.3,0.7c0,0.1,0,0.1,0,0.2c0,0,0,0.1,0,0.2V60z"/>
		<path class="st0" d="M36,1c0,0.1-0.1,0.3-0.3,0.3h-7.5C28.1,1.3,28,1.1,28,1s0.1-0.3,0.3-0.3h7.5C35.9,0.8,36,0.9,36,1z"/>
		<path class="st0" d="M45,62H19c-1.1,0-2-0.9-2-2V4c0-1.1,0.9-2,2-2H45c1.1,0,2,0.9,2,2V60C47,61.1,46.1,62,45,62z"/>
	</g>
	<g id="Layer_4" class="st1">
		<rect x="7.2" y="24" transform="matrix(-1.836970e-16 1 -1 -1.836970e-16 40 24)" class="st2" width="1.6" height="16"/>
		<rect x="55.2" y="24" transform="matrix(-1.836970e-16 1 -1 -1.836970e-16 88 -24)" class="st2" width="1.6" height="16"/>
	</g>
</svg>
