<?xml version="1.0" encoding="utf-8"?>
<!-- Generator: Adobe Illustrator 22.0.1, SVG Export Plug-In . SVG Version: 6.00 Build 0)  -->
<svg version="1.1" id="Layer_1" xmlns="http://www.w3.org/2000/svg" xmlns:xlink="http://www.w3.org/1999/xlink" x="0px" y="0px"
	 viewBox="0 0 64 60" style="enable-background:new 0 0 64 60;" xml:space="preserve">
    <g>
    	<path d="M63.5,33.5c-0.7,0.7-1.8,0.7-2.5,0L33.2,5.7c-0.7-0.7-1.8-0.7-2.5,0L3,33.5c-0.7,0.7-1.8,0.7-2.5,0s-0.7-1.8,0-2.5
    		L30.7,0.8c0.7-0.7,1.8-0.7,2.5,0L63.4,31C64.2,31.8,64.2,32.8,63.5,33.5z"/>
    </g>
    <g>
    	<path d="M33.3,7.1c-0.7-0.7-1.8-0.7-2.5,0L6.3,31.5c-0.7,0.7-1.3,2.1-1.3,3V58c0,0.9,0.8,1.8,1.8,1.8h16.4c0.9,0,1.8-0.8,1.8-1.8
    		V42.7c0-0.9,0.8-1.8,1.8-1.8h10.6c0.9,0,1.8,0.8,1.8,1.8V58c0,0.9,0.8,1.8,1.8,1.8h16.4c0.9,0,1.8-0.8,1.8-1.8V34.5
    		c0-0.9-0.6-2.3-1.3-3L33.3,7.1z"/>
    </g>
</svg>
